<?xml version="1.0" standalone="no"?>
<!DOCTYPE svg PUBLIC "-//W3C//DTD SVG 20010904//EN"
 "http://www.w3.org/TR/2001/REC-SVG-20010904/DTD/svg10.dtd">
<svg version="1.0" xmlns="http://www.w3.org/2000/svg"
 width="1087.000000pt" height="1087.000000pt" viewBox="0 0 1087.000000 1087.000000"
 preserveAspectRatio="xMidYMid meet">
<metadata>
Created by potrace 1.11, written by Peter Selinger 2001-2013
</metadata>
<g transform="translate(0.000000,1087.000000) scale(0.100000,-0.100000)"
fill="#000000" stroke="none">
<path d="M4718 10684 c-5 -4 -8 -68 -8 -143 0 -268 -68 -562 -164 -706 -167
-252 -463 -292 -683 -91 -133 121 -275 413 -315 646 -10 56 -16 70 -30 70 -10
0 -78 -20 -150 -44 -403 -132 -721 -358 -917 -651 -82 -122 -122 -199 -175
-334 -106 -269 -142 -551 -166 -1306 -20 -621 -31 -733 -93 -910 -77 -218
-122 -280 -540 -733 -257 -278 -346 -407 -436 -634 -94 -237 -117 -582 -57
-826 25 -99 82 -254 112 -299 13 -21 12 -22 -24 -28 -94 -14 -143 -28 -203
-56 -174 -83 -289 -233 -312 -410 -10 -78 -10 -78 24 -146 22 -44 60 -94 106
-142 l73 -74 -62 -65 c-84 -90 -112 -154 -112 -257 -1 -121 16 -148 130 -207
83 -43 95 -53 122 -100 44 -79 110 -134 226 -188 240 -112 305 -121 394 -58
26 20 57 40 69 46 19 11 20 10 6 -41 -23 -87 -26 -213 -9 -302 23 -116 91
-249 160 -313 53 -48 144 -108 151 -100 3 2 -1 35 -6 73 -15 96 -6 287 16 350
52 149 216 261 464 316 261 57 738 39 935 -36 78 -30 77 -88 -6 -254 -66 -134
-81 -197 -59 -264 17 -52 103 -191 157 -253 25 -30 45 -56 43 -58 -7 -6 -603
-185 -749 -225 -390 -106 -501 -126 -715 -126 -133 0 -184 4 -235 18 -97 27
-160 59 -218 111 -43 38 -60 46 -91 46 -86 0 -246 -118 -350 -258 l-50 -68
-70 -11 c-135 -21 -218 -75 -297 -195 -70 -105 -97 -191 -98 -313 -1 -159 7
-189 68 -251 60 -59 150 -109 234 -128 l57 -13 7 -103 c17 -263 90 -374 252
-387 34 -3 85 -1 113 5 44 10 56 8 109 -13 48 -20 77 -25 156 -25 208 0 336
37 418 121 31 32 71 101 147 258 101 207 107 216 186 296 91 92 138 119 417
240 423 183 926 376 1589 611 l264 93 34 -29 c85 -75 154 -90 416 -90 l203 0
72 35 c40 19 134 73 210 121 75 48 158 100 183 116 l47 28 213 -74 c905 -315
1881 -698 2341 -919 229 -110 290 -176 426 -461 105 -221 133 -263 204 -310
73 -48 149 -66 314 -73 137 -6 143 -5 197 20 46 21 62 24 89 16 18 -5 67 -9
108 -9 183 0 256 97 282 371 l11 116 57 11 c83 17 177 68 237 127 61 61 69 91
67 255 -1 86 -6 117 -26 172 -75 200 -206 318 -375 335 -51 6 -54 8 -102 72
-108 146 -273 271 -357 271 -25 0 -46 -11 -86 -46 -58 -53 -129 -87 -227 -111
-90 -23 -333 -22 -461 1 -208 37 -634 158 -1209 342 -279 90 -954 314 -959
319 -1 1 46 29 105 62 95 54 151 75 473 176 593 188 1234 367 1535 428 130 27
164 30 255 26 160 -8 296 -58 467 -170 116 -77 127 -77 270 -21 233 92 313
145 372 248 26 45 41 57 122 101 120 65 131 84 127 215 -4 117 -25 165 -113
254 l-60 61 70 70 c122 122 158 208 132 311 l-8 32 97 38 96 38 -5 271 c-5
279 -15 372 -62 590 -94 434 -252 746 -574 1130 -106 127 -461 485 -686 693
-523 483 -741 752 -1054 1300 -227 398 -513 855 -640 1022 -554 733 -1362
1214 -2246 1339 -159 22 -376 37 -387 25z m329 -119 c835 -109 1594 -536 2143
-1205 140 -172 406 -582 636 -981 201 -350 265 -455 355 -581 205 -287 391
-497 657 -744 907 -843 1158 -1171 1326 -1734 65 -217 95 -427 103 -715 l6
-221 -66 -26 -66 -26 -46 73 c-40 65 -45 79 -45 132 0 113 -30 378 -61 528
-90 449 -280 797 -672 1233 -130 144 -353 363 -512 502 -399 348 -785 838
-1111 1412 -94 166 -328 547 -459 748 -202 310 -493 613 -811 846 -397 290
-934 512 -1309 540 l-82 7 -7 -54 c-13 -98 -46 -250 -77 -348 -39 -123 -135
-318 -197 -400 -83 -109 -245 -210 -397 -247 -91 -22 -258 -22 -347 -1 -269
65 -544 348 -667 684 l-23 62 -52 -20 c-102 -40 -232 -109 -297 -158 -237
-180 -409 -485 -484 -856 -44 -220 -76 -679 -80 -1160 -1 -209 -7 -382 -15
-430 -30 -201 -105 -422 -192 -570 -67 -114 -122 -181 -338 -410 -113 -120
-227 -245 -254 -279 -115 -143 -225 -331 -281 -479 -82 -218 -73 -511 22 -748
37 -93 112 -227 163 -291 l30 -37 -47 -3 c-33 -2 -62 4 -93 18 -25 12 -71 30
-104 40 -68 21 -86 44 -147 184 -144 334 -128 744 44 1087 75 148 157 260 327
443 395 426 459 505 536 665 105 219 132 362 144 775 35 1126 67 1366 225
1695 151 313 357 517 694 689 97 49 270 119 314 128 16 2 23 -12 47 -92 68
-236 165 -418 293 -549 284 -293 716 -215 901 163 69 141 127 394 142 624 l6
102 54 0 c29 0 106 -7 171 -15z m1217 -1637 c-116 -122 -100 -67 -139 -494
-19 -208 -39 -399 -45 -423 -36 -147 -170 -282 -328 -331 -112 -35 -287 -24
-378 23 -95 49 -144 130 -143 237 0 36 15 225 33 420 l33 355 -71 73 c-54 55
-66 72 -51 72 11 1 147 16 303 34 155 18 282 30 282 28 0 -2 -35 -41 -78 -87
l-77 -83 -33 -369 c-18 -202 -33 -385 -32 -406 0 -71 47 -127 122 -148 89 -24
215 53 252 153 10 27 28 183 50 427 l35 384 -65 71 c-35 39 -60 72 -54 74 10
4 388 49 425 51 14 1 4 -15 -41 -61z m-1228 -108 c32 -11 61 -23 66 -28 6 -6
-19 -341 -27 -350 -1 -2 -53 49 -115 112 -122 125 -153 143 -224 132 -171 -28
-246 -210 -263 -641 -5 -133 -3 -170 11 -217 31 -108 101 -145 213 -113 55 15
67 25 205 168 81 84 148 145 148 137 0 -8 -7 -87 -15 -175 -17 -181 -10 -166
-120 -221 -82 -40 -229 -74 -328 -74 -164 0 -308 91 -390 248 -46 86 -67 174
-67 277 0 304 218 626 494 730 127 48 301 54 412 15z m-847 -89 c-53 -72 -101
-145 -129 -196 -19 -33 -35 -62 -37 -64 -2 -3 -27 18 -56 46 l-52 51 -132 -15
-132 -16 -5 -36 c-9 -64 -29 -302 -25 -306 2 -2 42 1 89 6 l85 10 83 86 83 87
-6 -59 c-10 -105 -35 -379 -35 -395 0 -8 -31 18 -68 58 l-67 73 -90 -12 c-49
-6 -91 -12 -91 -12 -7 -7 -36 -418 -31 -424 4 -4 74 1 154 10 l147 17 62 61
61 60 28 -55 c16 -31 52 -85 82 -121 48 -59 51 -65 31 -65 -13 -1 -250 -27
-528 -59 -278 -32 -507 -56 -509 -54 -3 2 31 40 75 84 l79 79 42 463 42 462
-67 67 c-36 37 -64 69 -61 71 3 3 909 110 978 116 11 1 11 -2 0 -18z m1563
-1589 c109 -29 303 -111 419 -177 284 -161 503 -385 637 -651 73 -146 131
-344 146 -504 l5 -55 -42 50 c-48 58 -114 124 -244 246 -81 75 -96 96 -131
171 -53 115 -111 197 -201 289 -116 116 -294 226 -406 250 -73 16 -301 16
-409 0 -58 -8 -107 -8 -190 0 -174 17 -626 14 -791 -5 -237 -28 -510 -92 -607
-142 -26 -14 -32 -12 -108 32 l-79 46 52 77 c155 226 318 307 666 332 86 6
311 23 501 39 419 35 657 35 782 2z m-2107 -519 c51 -16 182 -80 269 -131 l50
-29 70 33 c220 101 538 152 891 141 105 -3 198 -9 208 -13 14 -5 -5 -19 -83
-60 -207 -110 -619 -383 -663 -439 -15 -19 -45 -72 -66 -118 -21 -45 -51 -94
-67 -109 -36 -34 -103 -58 -160 -58 -40 0 -49 5 -114 66 -39 37 -116 121 -173
188 -196 233 -235 253 -327 170 -55 -50 -103 -117 -155 -219 l-43 -86 -45 63
c-93 131 -102 171 -59 262 35 75 92 161 154 233 112 130 171 150 313 106z
m2271 12 c119 -21 170 -51 290 -170 134 -133 148 -153 182 -270 l30 -100 138
-140 c267 -270 393 -478 394 -651 0 -64 -2 -72 -23 -81 -106 -49 -153 -169
-107 -272 22 -48 99 -157 168 -238 l44 -53 -7 -77 -7 -77 -67 -69 c-64 -67
-181 -152 -270 -197 -41 -21 -49 -21 -100 -10 -30 7 -107 39 -170 71 l-116 59
-1 102 c-1 114 -20 202 -61 288 l-27 55 -8 -110 c-15 -194 -12 -187 -76 -249
-77 -76 -137 -117 -240 -166 -48 -22 -98 -46 -112 -53 -36 -18 -37 -61 -2
-132 33 -67 62 -156 62 -192 0 -38 -28 -82 -56 -89 -14 -4 -123 7 -242 24
-488 70 -694 86 -1107 87 -382 0 -484 -9 -519 -45 -21 -21 -21 -21 -2 -36 15
-10 49 -14 128 -14 105 0 108 -1 108 -22 0 -35 -38 -210 -47 -219 -4 -4 -73
-5 -153 -1 l-144 7 -13 43 c-6 24 -17 86 -23 139 -6 53 -12 98 -14 101 -2 2
-20 -3 -39 -12 -34 -14 -36 -17 -43 -83 -5 -37 -9 -176 -9 -309 0 -298 -1
-294 108 -294 290 0 743 -49 1272 -136 149 -24 322 -49 385 -56 131 -13 111
-17 375 77 159 56 211 84 242 131 24 37 42 217 50 482 l6 233 43 30 c79 54
220 99 311 99 l38 0 1 -228 c1 -295 15 -380 90 -550 30 -68 62 -149 70 -181
16 -57 16 -61 -5 -131 -33 -107 -90 -219 -136 -266 -96 -95 -224 -173 -624
-376 -150 -76 -271 -132 -268 -124 10 25 35 158 42 221 l7 60 -55 -87 c-71
-113 -136 -196 -222 -286 -85 -91 -226 -198 -270 -206 -43 -8 -314 30 -390 55
-66 22 -113 51 -285 174 -63 46 -140 98 -170 115 l-55 32 -115 -5 c-63 -3
-153 -12 -200 -21 -149 -27 -298 -38 -336 -26 -42 14 -121 100 -191 207 -86
131 -95 178 -52 264 20 40 85 127 136 180 33 35 34 38 20 60 -22 34 -63 172
-86 286 -45 220 -50 472 -15 709 22 155 40 212 94 301 28 45 50 86 50 91 0 6
-28 29 -62 53 -73 49 -186 140 -259 207 -47 44 -51 51 -59 112 -18 123 -13
181 18 231 40 62 127 149 150 149 11 0 49 -18 84 -39 175 -106 394 -197 444
-185 70 18 293 217 366 326 130 196 176 314 228 590 21 106 51 175 114 256
106 138 611 450 920 569 191 74 288 86 452 58z m1339 -1535 c271 -85 434 -328
435 -651 0 -180 -48 -306 -160 -419 -126 -127 -206 -159 -430 -167 l-125 -5
-92 46 c-51 26 -103 61 -118 78 -24 28 -26 38 -21 77 10 70 41 79 107 31 87
-63 223 -93 321 -70 94 22 196 77 264 144 56 55 63 67 74 121 14 70 8 191 -15
280 -23 89 -58 154 -120 223 -82 90 -176 130 -342 147 -61 7 -62 8 -83 49 -25
53 -25 72 1 115 l20 34 107 -6 c68 -3 132 -13 177 -27z m-4243 -498 c9 -4 39
-41 66 -83 27 -42 86 -120 131 -173 94 -111 96 -120 60 -266 -51 -212 -64
-525 -34 -784 8 -71 14 -130 13 -131 -2 -2 -68 4 -148 11 -199 19 -587 19
-713 -1 -342 -52 -617 -243 -689 -479 l-21 -71 -13 30 c-42 99 -44 304 -4 430
29 92 89 212 147 294 205 289 621 550 1094 686 68 20 125 37 126 39 7 7 -67
17 -89 11 -13 -2 -86 -9 -164 -15 -224 -17 -559 14 -810 74 -54 14 -100 23
-102 21 -2 -2 20 -20 50 -39 74 -50 205 -102 318 -126 170 -38 166 -25 34
-107 -63 -40 -122 -73 -129 -73 -32 0 -286 71 -360 100 -165 66 -322 157 -384
223 l-24 26 24 5 c13 3 62 12 109 21 230 44 440 107 774 234 206 79 327 114
463 135 94 15 247 19 275 8z m-1791 -32 c20 -6 64 -28 99 -51 56 -36 65 -39
93 -30 44 16 165 13 223 -4 28 -8 68 -30 90 -49 l39 -34 -40 -10 c-219 -58
-373 -85 -491 -86 l-101 -1 65 -72 c199 -220 486 -421 692 -484 41 -13 77 -24
79 -26 2 -1 -31 -39 -73 -83 -92 -99 -206 -249 -272 -359 -27 -44 -53 -81 -58
-81 -6 0 -66 -28 -135 -62 l-125 -61 -65 17 c-104 28 -185 71 -223 118 -33 42
-33 44 -31 138 1 60 9 120 21 163 11 37 16 67 13 67 -23 0 -106 -67 -137 -110
-36 -50 -39 -51 -73 -45 -124 23 -138 204 -22 289 51 38 142 130 159 162 10
18 4 25 -49 64 -145 105 -219 219 -204 313 10 58 41 126 73 161 47 49 152 118
216 142 67 25 174 31 237 14z m8584 -64 c152 -75 245 -196 245 -319 0 -32 -7
-73 -15 -92 -18 -44 -99 -130 -174 -187 -31 -23 -60 -45 -65 -50 -15 -12 68
-112 136 -163 74 -55 95 -84 104 -141 13 -88 -31 -162 -103 -170 -36 -5 -39
-3 -72 45 -29 44 -109 111 -133 111 -10 0 -10 -3 2 -36 21 -54 42 -207 35
-255 -10 -72 -66 -127 -172 -167 -141 -55 -145 -54 -275 21 -119 69 -245 127
-331 152 -226 65 -520 18 -1142 -185 -132 -43 -415 -131 -630 -195 -214 -63
-402 -120 -416 -124 l-25 -9 24 82 c20 63 25 105 26 191 1 61 -2 124 -7 140
l-7 30 177 63 c522 187 1079 421 1420 597 232 119 406 258 491 389 50 79 130
167 177 196 21 13 59 22 109 26 74 7 79 6 150 -30 41 -20 96 -56 124 -81 27
-25 53 -45 57 -45 10 0 -4 58 -31 125 -29 70 -25 77 58 107 82 29 169 20 263
-26z m-5202 -691 c11 -5 17 -18 17 -41 0 -44 -29 -186 -40 -198 -5 -5 -81 -5
-173 -1 -192 8 -172 -9 -183 154 l-7 104 184 -6 c101 -3 192 -8 202 -12z m320
-30 c191 -22 181 -18 173 -80 -3 -29 -15 -82 -26 -119 -17 -55 -24 -66 -43
-66 -63 0 -323 35 -329 44 -4 6 -8 62 -8 124 l0 112 53 0 c28 0 110 -7 180
-15z m422 -61 c39 -7 103 -24 143 -36 l74 -21 -7 -36 c-4 -19 -18 -64 -32 -99
l-26 -65 -66 6 c-138 12 -250 30 -254 41 -3 7 -2 63 1 125 l5 113 46 -7 c25
-3 78 -13 116 -21z m-1208 -248 c8 -8 8 -194 1 -201 -2 -2 -80 3 -172 13
l-169 17 6 81 c2 45 8 88 12 94 9 14 308 10 322 -4z m389 -17 c23 -8 38 -69
51 -203 l6 -63 -184 30 c-101 16 -185 30 -187 32 -5 5 29 188 39 206 8 16 21
17 132 12 67 -3 132 -9 143 -14z m396 -35 c31 -3 63 -11 72 -17 14 -11 26 -80
39 -229 5 -48 4 -48 -26 -48 -17 0 -104 12 -194 26 -142 23 -163 29 -163 45 0
33 42 214 53 227 11 14 47 13 219 -4z m396 -64 c68 -11 132 -25 142 -30 13 -7
22 -34 34 -97 27 -145 36 -133 -107 -133 -187 0 -277 9 -277 29 0 15 45 212
55 239 6 16 8 16 153 -8z m1958 -1321 c835 -262 1099 -338 1349 -384 283 -52
507 -23 695 89 42 26 80 42 89 38 92 -34 219 -166 271 -284 l19 -44 107 -13
c120 -14 165 -32 212 -86 98 -111 126 -284 67 -412 -19 -43 -32 -56 -72 -76
-60 -31 -111 -45 -203 -56 -39 -5 -75 -12 -78 -16 -4 -4 -7 -77 -7 -163 0
-139 -3 -162 -22 -204 -28 -61 -58 -80 -119 -76 l-48 3 -16 80 c-9 44 -23 94
-30 110 l-12 30 -25 -78 c-21 -68 -32 -87 -83 -139 l-59 -61 -85 7 c-85 7
-271 47 -307 66 -20 11 -127 222 -149 295 -18 59 -116 246 -155 298 -91 120
-353 243 -1130 532 -279 104 -1066 390 -1244 451 l-53 19 6 55 c9 73 44 146
94 195 42 40 115 84 143 85 8 0 389 -117 845 -261z m-3559 9 c92 3 136 0 180
-13 113 -33 220 -101 256 -164 18 -31 18 -31 -5 -40 -13 -4 -97 -34 -188 -66
-1335 -464 -1709 -620 -1832 -764 -41 -48 -127 -210 -164 -307 -33 -90 -119
-257 -142 -278 -38 -33 -316 -85 -387 -72 -61 12 -146 130 -161 225 -4 23 -10
41 -14 41 -14 0 -50 -122 -50 -166 0 -35 -4 -43 -22 -48 -82 -22 -138 13 -164
102 -13 45 -16 81 -11 168 3 61 4 127 0 147 -5 34 -6 35 -67 41 -157 18 -265
66 -292 132 -27 63 -35 138 -25 204 21 129 108 257 190 280 20 6 78 13 129 17
l93 6 34 66 c36 70 89 139 145 188 42 36 115 83 130 83 6 0 32 -14 56 -31 186
-128 443 -164 749 -105 235 45 482 110 905 241 395 121 407 124 470 117 36 -4
120 -5 187 -4z"/>
<path d="M5733 6226 c-92 -43 -253 -159 -455 -327 -132 -110 -142 -114 -288
-114 -134 1 -141 4 -175 75 -16 33 -30 60 -33 60 -2 0 -23 -16 -47 -35 -70
-58 -92 -98 -104 -198 -7 -48 -8 -94 -3 -102 4 -9 42 -43 82 -76 41 -33 170
-152 285 -263 l210 -203 65 41 65 41 296 5 c294 5 296 5 331 30 20 13 47 41
61 62 35 55 86 216 99 311 20 160 15 151 85 162 l62 10 -41 80 c-96 189 -247
375 -353 436 -61 35 -76 35 -142 5z"/>
<path d="M4306 5079 c-14 -16 -50 -81 -80 -142 -43 -88 -72 -131 -132 -197
-107 -118 -134 -163 -134 -221 0 -38 6 -56 33 -90 42 -55 94 -84 131 -75 15 4
49 26 74 50 57 51 92 76 110 76 7 0 47 -32 87 -70 112 -106 208 -142 287 -107
42 18 178 138 178 156 0 9 -23 47 -50 85 -93 127 -173 295 -219 457 -11 40
-25 77 -30 82 -6 6 -30 -2 -67 -22 -69 -40 -97 -36 -118 14 -18 43 -37 44 -70
4z"/>
<path d="M5775 2885 c-138 -60 -180 -74 -222 -75 -28 0 -147 16 -265 35 -265
44 -362 53 -356 35 2 -7 26 -21 53 -31 309 -113 528 -187 565 -193 64 -9 101
5 189 71 99 74 235 208 227 222 -4 6 -10 11 -14 10 -4 0 -83 -34 -177 -74z"/>
<path d="M1285 3909 c-11 -35 -15 -67 -11 -84 10 -41 99 -122 149 -136 47 -13
143 -8 227 12 l55 12 -40 9 c-246 54 -304 86 -343 191 l-20 51 -17 -55z"/>
<path d="M9476 3953 c-47 -150 -127 -255 -203 -269 -66 -12 -71 -20 -25 -43
56 -29 95 -27 145 8 97 67 117 110 117 256 0 58 -4 105 -8 105 -5 0 -16 -26
-26 -57z"/>
<path d="M9495 1123 c-110 -70 -224 -118 -302 -129 -59 -7 -145 14 -187 47
-15 12 -30 19 -33 15 -12 -11 31 -101 67 -140 l37 -39 106 -5 c102 -4 109 -3
163 24 31 16 78 52 107 84 53 57 154 197 146 203 -2 2 -49 -25 -104 -60z"/>
<path d="M1140 1231 c0 -15 83 -134 135 -195 57 -68 123 -101 225 -117 142
-22 198 2 246 106 35 74 31 79 -30 45 -69 -39 -133 -47 -216 -26 -74 19 -234
100 -308 157 -29 21 -52 35 -52 30z"/>
<path d="M8487 2844 c-15 -16 -5 -24 28 -24 l35 0 0 -89 c0 -69 3 -90 15 -94
12 -5 15 10 17 86 l3 92 33 3 c20 2 32 8 29 15 -4 13 -148 23 -160 11z"/>
<path d="M8697 2844 c-4 -4 -7 -51 -7 -105 0 -74 3 -98 14 -102 22 -9 26 2 27
82 l0 76 19 -46 c51 -126 50 -124 64 -108 7 8 26 48 42 89 l29 75 5 -85 c3
-57 9 -86 18 -87 9 -2 12 24 12 108 l0 110 -26 -3 c-22 -3 -30 -14 -56 -82
l-31 -79 -31 79 c-23 59 -36 80 -51 82 -12 2 -24 0 -28 -4z"/>
</g>
</svg>
